<svg width="693" height="616" viewBox="0 0 693 616" fill="none" xmlns="http://www.w3.org/2000/svg">
<g id="bg-shape" clip-path="url(#clip0_1_2)">
<path id="Vector" d="M691.098 313.801C678.934 421.049 615.374 516.127 534.009 577.946C527.405 582.968 520.639 587.786 513.708 592.399C512.839 592.978 511.971 593.557 511.102 594.125C462.752 625.725 407.36 645.968 351.713 639.654C306.502 634.532 262.108 608.333 235.613 569.195C235.112 568.46 234.611 567.703 234.131 566.957C223.338 550.651 216.019 531.928 212.706 512.152C207.943 482.879 211.643 450.511 196.842 425.536C177.645 393.135 136.533 387.857 101.155 389.07C68.0876 390.195 35.0711 394.092 2.04436 396.119C1.36972 396.163 0.684862 396.197 0 396.241V55.3066C0.00740387 48.6085 2.45336 38.9515 6.80135 34.2153C11.1493 29.479 17.0443 26.8147 23.1933 26.8066H167.045C174.006 27.7976 174.906 34.946 185.874 43.5085C196.842 52.071 194.879 44.0429 194.879 44.0429C194.879 44.0429 201.226 41.8066 235.613 18.8066C270 -4.19342 251.737 93.0335 308 29.0335C364.263 -34.9665 537.362 26.8066 537.362 26.8066C539.345 27.5192 541.307 28.2653 543.27 29.0335C551.726 32.3531 559.987 36.2352 568.007 40.6581C656.487 89.5277 703.262 206.552 691.098 313.801Z" fill="url(#paint0_linear_1_2)"/>
<path id="Vector_2" d="M0.309998 90.94C0.248443 91.1959 0.143603 91.4394 0 91.66V88.87C0.365156 89.4946 0.476145 90.2358 0.309998 90.94V90.94Z" fill="#FF6584"/>
<path id="Vector_3" d="M8.20078 101.532C8.40143 99.7363 7.55143 98.1674 6.30225 98.0279C5.05308 97.8883 3.87776 99.2308 3.67712 101.026C3.47647 102.822 4.32647 104.391 5.57565 104.531C6.82482 104.67 8.00014 103.328 8.20078 101.532Z" fill="#E6E6E6"/>
<path id="Vector_4" d="M10.9837 122.74C11.1843 120.944 10.3343 119.375 9.08515 119.236C7.83597 119.096 6.66066 120.439 6.46001 122.234C6.25937 124.03 7.10937 125.599 8.35854 125.738C9.60772 125.878 10.783 124.536 10.9837 122.74Z" fill="#3F3D56"/>
<path id="Vector_5" d="M504.96 291.866C505.449 289.938 503.599 287.806 500.827 287.103C498.056 286.401 495.413 287.395 494.925 289.323C494.436 291.25 496.287 293.383 499.058 294.085C501.829 294.787 504.472 293.794 504.96 291.866Z" fill="white"/>
<path id="Vector_6" d="M471.117 291.648C471.605 289.72 469.755 287.588 466.983 286.885C464.212 286.183 461.569 287.176 461.081 289.104C460.592 291.032 462.443 293.164 465.214 293.867C467.986 294.569 470.628 293.576 471.117 291.648Z" fill="#3F3D56"/>
<path id="Vector_7" d="M511.311 319.944C511.8 318.016 509.95 315.884 507.178 315.182C504.407 314.48 501.764 315.473 501.276 317.401C500.787 319.329 502.637 321.461 505.409 322.163C508.18 322.866 510.823 321.872 511.311 319.944Z" fill="#FF6584"/>
<path id="Vector_8" d="M519.201 330.532C519.401 328.736 518.551 327.167 517.302 327.028C516.053 326.888 514.878 328.231 514.677 330.026C514.476 331.822 515.326 333.391 516.576 333.531C517.825 333.67 519 332.328 519.201 330.532Z" fill="#E6E6E6"/>
<path id="Vector_9" d="M521.984 351.74C522.184 349.944 521.334 348.375 520.085 348.236C518.836 348.096 517.661 349.439 517.46 351.234C517.259 353.03 518.109 354.599 519.359 354.738C520.608 354.878 521.783 353.536 521.984 351.74Z" fill="#3F3D56"/>
<path id="Vector_10" d="M487.383 311.324C487.584 309.528 486.734 307.959 485.485 307.82C484.236 307.68 483.06 309.023 482.86 310.818C482.659 312.614 483.509 314.183 484.758 314.323C486.007 314.462 487.183 313.12 487.383 311.324Z" fill="#E6E6E6"/>
<path id="Vector_11" d="M504.415 304.925C504.616 303.13 503.766 301.561 502.517 301.421C501.267 301.282 500.092 302.624 499.891 304.42C499.691 306.216 500.541 307.785 501.79 307.924C503.039 308.064 504.214 306.721 504.415 304.925Z" fill="#FF6584"/>
<path id="Vector_12" d="M483.433 287.639C483.633 285.843 482.783 284.274 481.534 284.135C480.285 283.995 479.11 285.338 478.909 287.133C478.708 288.929 479.558 290.498 480.808 290.638C482.057 290.777 483.232 289.435 483.433 287.639Z" fill="#3F3D56"/>
<path id="Vector_13" d="M49.9605 54.8659C50.4491 52.9379 48.5985 50.8057 45.8272 50.1034C43.0558 49.4011 40.4131 50.3946 39.9245 52.3225C39.436 54.2504 41.2865 56.3826 44.0579 57.085C46.8292 57.7873 49.4719 56.7938 49.9605 54.8659Z" fill="white"/>
<path id="Vector_14" d="M16.1169 54.6477C16.6054 52.7198 14.7549 50.5875 11.9835 49.8852C9.21217 49.1829 6.56948 50.1764 6.0809 52.1043C5.59233 54.0322 7.44288 56.1645 10.2142 56.8668C12.9856 57.5691 15.6283 56.5756 16.1169 54.6477Z" fill="#3F3D56"/>
<path id="Vector_15" d="M56.3115 82.9443C56.8 81.0164 54.9495 78.8842 52.1781 78.1819C49.4068 77.4795 46.7641 78.4731 46.2755 80.401C45.7869 82.3289 47.6375 84.4611 50.4088 85.1634C53.1802 85.8657 55.8229 84.8722 56.3115 82.9443Z" fill="#FF6584"/>
<path id="Vector_16" d="M64.2008 93.532C64.4014 91.7363 63.5514 90.1674 62.3023 90.0279C61.0531 89.8883 59.8778 91.2308 59.6771 93.0265C59.4765 94.8222 60.3265 96.391 61.5756 96.5306C62.8248 96.6702 64.0001 95.3276 64.2008 93.532Z" fill="#E6E6E6"/>
<path id="Vector_17" d="M66.9837 114.74C67.1843 112.944 66.3343 111.375 65.0852 111.236C63.836 111.096 62.6607 112.439 62.46 114.234C62.2594 116.03 63.1094 117.599 64.3586 117.738C65.6077 117.878 66.783 116.536 66.9837 114.74Z" fill="#3F3D56"/>
<path id="Vector_18" d="M32.3834 74.3239C32.584 72.5282 31.734 70.9594 30.4849 70.8198C29.2357 70.6802 28.0604 72.0228 27.8597 73.8185C27.6591 75.6141 28.5091 77.183 29.7583 77.3226C31.0074 77.4621 32.1828 76.1196 32.3834 74.3239Z" fill="#E6E6E6"/>
<path id="Vector_19" d="M49.4151 67.9254C49.6158 66.1298 48.7658 64.5609 47.5166 64.4213C46.2674 64.2818 45.0921 65.6243 44.8914 67.42C44.6908 69.2157 45.5408 70.7845 46.79 70.9241C48.0391 71.0637 49.2145 69.7211 49.4151 67.9254Z" fill="#FF6584"/>
<path id="Vector_20" d="M28.4328 50.6389C28.6335 48.8432 27.7835 47.2744 26.5343 47.1348C25.2851 46.9952 24.1098 48.3378 23.9091 50.1335C23.7085 51.9291 24.5585 53.498 25.8077 53.6376C27.0568 53.7771 28.2322 52.4346 28.4328 50.6389Z" fill="#3F3D56"/>
<path id="Vector_21" d="M158.373 198.095C160.582 198.095 162.373 196.304 162.373 194.095C162.373 191.886 160.582 190.095 158.373 190.095C156.164 190.095 154.373 191.886 154.373 194.095C154.373 196.304 156.164 198.095 158.373 198.095Z" fill="white"/>
<path id="Vector_22" d="M60.3728 236.095C61.4774 236.095 62.3728 235.2 62.3728 234.095C62.3728 232.991 61.4774 232.095 60.3728 232.095C59.2682 232.095 58.3728 232.991 58.3728 234.095C58.3728 235.2 59.2682 236.095 60.3728 236.095Z" fill="white"/>
<path id="Vector_23" d="M457.373 385.095C458.477 385.095 459.373 384.2 459.373 383.095C459.373 381.991 458.477 381.095 457.373 381.095C456.268 381.095 455.373 381.991 455.373 383.095C455.373 384.2 456.268 385.095 457.373 385.095Z" fill="white"/>
<path id="Vector_24" d="M199.373 293.095C200.477 293.095 201.373 292.2 201.373 291.095C201.373 289.991 200.477 289.095 199.373 289.095C198.268 289.095 197.373 289.991 197.373 291.095C197.373 292.2 198.268 293.095 199.373 293.095Z" fill="white"/>
<path id="Vector_25" d="M235.373 84.0953C236.477 84.0953 237.373 83.1999 237.373 82.0953C237.373 80.9908 236.477 80.0953 235.373 80.0953C234.268 80.0953 233.373 80.9908 233.373 82.0953C233.373 83.1999 234.268 84.0953 235.373 84.0953Z" fill="white"/>
<path id="Vector_26" d="M562.373 161.095C563.477 161.095 564.373 160.2 564.373 159.095C564.373 157.991 563.477 157.095 562.373 157.095C561.268 157.095 560.373 157.991 560.373 159.095C560.373 160.2 561.268 161.095 562.373 161.095Z" fill="white"/>
<path id="Vector_27" d="M97.3728 57.0953C98.4774 57.0953 99.3728 56.1999 99.3728 55.0953C99.3728 53.9908 98.4774 53.0953 97.3728 53.0953C96.2682 53.0953 95.3728 53.9908 95.3728 55.0953C95.3728 56.1999 96.2682 57.0953 97.3728 57.0953Z" fill="white"/>
<path id="Vector_28" d="M461.373 47.0953C463.582 47.0953 465.373 45.3045 465.373 43.0953C465.373 40.8862 463.582 39.0953 461.373 39.0953C459.164 39.0953 457.373 40.8862 457.373 43.0953C457.373 45.3045 459.164 47.0953 461.373 47.0953Z" fill="white"/>
<path id="Vector_29" d="M640.37 574.6H638.37C638.37 563.06 627.56 551.77 606.23 541.04C585.36 530.54 555.44 521.1 517.32 512.99C511.68 511.79 505.91 510.63 500.01 509.51C469.49 503.71 435.58 498.96 399.26 495.35C391.75 494.6 384.133 493.903 376.41 493.26C373.91 493.04 371.39 492.84 368.86 492.63C361.83 492.08 354.727 491.567 347.55 491.09C310.09 488.61 270.76 487.26 230.5 487.12C228.13 487.1 225.75 487.1 223.37 487.1C170.94 487.1 159.1 492.05 158.4 496.21C156.61 506.73 217.25 527.86 275.89 548.31C340.8 570.93 407.51 594.19 430.23 614C431 614.67 431.72 615.34 432.39 616H429.64C428.91 615.34 428.12 614.67 427.28 614C403.29 594.84 336 571.38 275.23 550.19C200.29 524.07 154.46 507.47 156.42 495.87C157.27 490.85 165.65 485.1 223.37 485.1C225.26 485.1 227.16 485.1 229.05 485.11C269.3 485.22 308.63 486.54 346.13 489C353.46 489.47 360.717 489.99 367.9 490.56C370.57 490.77 373.23 490.98 375.88 491.21C383.8 491.87 391.617 492.583 399.33 493.35C436.61 497.05 471.38 501.95 502.56 507.96C507.72 508.96 512.78 509.987 517.74 511.04C596.82 527.86 640.37 550.43 640.37 574.6Z" fill="#E6E6E6"/>
<path id="Vector_30" d="M609.373 569.779H607.373C607.373 561.239 572.485 552.095 520.548 552.095C468.612 552.095 433.724 561.239 433.724 569.779H431.724C431.724 557.458 476.886 550.095 520.548 550.095C564.21 550.095 609.373 557.458 609.373 569.779Z" fill="#E6E6E6"/>
<path id="Vector_31" d="M574.476 575.595H572.476C572.476 570.772 551.269 565.397 520.839 565.397C490.409 565.397 469.202 570.772 469.202 575.595H467.202C467.202 567.672 494.837 563.397 520.839 563.397C546.841 563.397 574.476 567.672 574.476 575.595Z" fill="#E6E6E6"/>
<path id="Vector_32" d="M402.943 408.565C402.773 409.765 402.523 413.845 402.233 419.785C390.185 421.737 377.942 422.188 365.783 421.125L362.083 403.285C374.54 405.56 387.292 405.722 399.803 403.765C402.623 405.045 403.743 402.965 402.943 408.565Z" fill="#3F3D56"/>
<path id="Vector_33" d="M338.513 427.175C328.26 429.457 317.839 430.908 307.353 431.515L302.123 423.765L301.003 415.075C312.79 415.379 324.556 413.923 335.913 410.755C334.953 415.095 334.273 418.035 334.273 418.035L338.513 427.175Z" fill="#3F3D56"/>
</g>
<defs>
<linearGradient id="paint0_linear_1_2" x1="346.5" y1="26.8067" x2="518.974" y2="610.59" gradientUnits="userSpaceOnUse">
<stop offset="0.21875" stop-color="#603BF1" stop-opacity="0.96"/>
<stop offset="1" stop-color="#3A15CE" stop-opacity="0.7"/>
</linearGradient>
<clipPath id="clip0_1_2">
<rect width="693" height="616" fill="white"/>
</clipPath>
</defs>
</svg>
